<svg id="99189958086_airAirCasteThinner" class="record-detail__icon" viewBox="-1 0 52 62" xmlns="http://www.w3.org/2000/svg"><defs><radialGradient cx="0" cy="0" r="1" gradientUnits="userSpaceOnUse" gradientTransform="translate(25 32) scale(35 50)" id="gradient_99189958086_airAirCasteThinner"><stop offset="30%" style="stop-color: rgb(255, 255, 255); stop-opacity: 1;"/><stop offset="100%" style="stop-color: rgb(218, 218, 218); stop-opacity: 1;"/></radialGradient></defs><path class="record-spotlight__path" d="M34.9927 3.31021C34.0377 1.87791 29.0583 0.923096 24.4199 0.923096C19.7814 0.923096 16.0844 2.00071 14.3927 3.31021C8.73112 4.94709 5.1841 8.56187 4.63841 11.5628C4.09271 14.5638 0 46.0055 0 48.7337C0 51.4618 4.50198 61.6923 25.3066 61.6923C46.1112 61.6923 49.9311 51.3254 49.9993 48.7337C50.0675 46.142 45.0198 10.7444 45.0198 10.7444C44.2695 5.76553 35.6748 3.37842 34.9927 3.31021Z" fill="url(#gradient_99189958086_airAirCasteThinner)" stroke="#6b6b6b" stroke-width="1" stroke-miterlimit="5" stroke-linecap="round" stroke-linejoin="round" shape-rendering="geometricPrecision"/><g transform="translate(16 48), scale(.5 .5)" fill="#292929"><g clip-path="url(#clip_air)"><path d="M11.2 15.85l-1.4-3.26H3.3c-.5 1.3-.76 1.94-1.25 3.24-.79 0-1.48-.33-2.05-1L6.42 0c2.26 4.94 4.52 9.88 6.8 14.8-.55.66-1.24 1-2.03 1.04zM6.41 4.77c-.78 1.91-1.58 3.83-2.36 5.77h4.89L6.42 4.77zM15.82 15.67c-.43 0-.78-.02-1.1-.12V.68a4.58 4.58 0 0 1 2.22 0v14.87c-.32.1-.7.12-1.12.12zM28.02 16L22.7 7.79c1.55.1 3.99-.37 3.97-2.56-.02-1.74-1.05-2.67-3.11-2.67-.52 0-.98.02-1.48.11v12.88a4.62 4.62 0 0 1-2.24 0V.81c1.39-.23 2.63-.34 3.65-.36 2.52-.08 5.55 1.33 5.55 4.53 0 2-1.32 3.54-3.08 3.97 1.35 1.84 2.69 3.68 4.04 5.5A3.41 3.41 0 0 1 28.02 16z"/></g><defs><clipPath id="clip_air"><path d="M0 0h30v16H0z"/></clipPath></defs></g></svg>