<svg id="99189952004_dryPraxetiWhite" class="record-detail__icon" viewBox="-1 0 52 62" xmlns="http://www.w3.org/2000/svg"><path class="record-spotlight__path" d="M34.9927 3.31021C34.0377 1.87791 29.0583 0.923096 24.4199 0.923096C19.7814 0.923096 16.0844 2.00071 14.3927 3.31021C8.73112 4.94709 5.1841 8.56187 4.63841 11.5628C4.09271 14.5638 0 46.0055 0 48.7337C0 51.4618 4.50198 61.6923 25.3066 61.6923C46.1112 61.6923 49.9311 51.3254 49.9993 48.7337C50.0675 46.142 45.0198 10.7444 45.0198 10.7444C44.2695 5.76553 35.6748 3.37842 34.9927 3.31021Z" fill="#FFFFFF" stroke="#6b6b6b" stroke-width="1" stroke-miterlimit="5" stroke-linecap="round" stroke-linejoin="round" shape-rendering="geometricPrecision"/><g transform="translate(16 48), scale(.5 .5)" fill="#292929"><g clip-path="url(#clip_dry)"><path d="M3.897.074c4.985 0 7.6 2.42 7.6 6.998 0 5.062-2.633 7.798-7.565 7.798-1.387-.019-2.686-.168-3.932-.559V.67C1.018.298 2.334.074 3.897.074zm.087 12.73c3.511 0 5.231-1.824 5.231-5.583 0-3.424-1.702-5.1-5.16-5.1-.527 0-1.159.038-1.826.15v10.365a9.923 9.923 0 0 0 1.755.168zM21.765 15l-5.248-7.872c2.633 0 3.914-.763 3.914-2.457 0-1.693-1.036-2.568-3.072-2.568-.509 0-.965.019-1.456.112V14.59c-.387.093-.738.13-1.141.13-.386 0-.72-.037-1.071-.13V.428C15.06.205 16.254.074 17.289.074c3.581 0 5.477 1.582 5.477 4.355 0 1.936-1.053 3.276-3.037 3.815l3.985 5.286c-.457.744-1.106 1.228-1.949 1.47zM29.295 6.774L33 0c.86.112 1.492.521 2.001 1.191l-4.599 7.612v5.788c-.333.093-.72.111-1.088.111-.386 0-.737-.018-1.123-.111V8.803l-4.6-7.612C24.1.502 24.75.111 25.593 0l3.703 6.774z"/></g><defs><clipPath id="clip_dry"><path d="M0 0h35v15H0z"/></clipPath></defs></g></svg>